<svg xmlns="http://www.w3.org/2000/svg" version="1.1" xmlns:xlink="http://www.w3.org/1999/xlink" xmlns:svgjs="http://svgjs.com/svgjs" width="1663" height="870.72" preserveAspectRatio="none" viewBox="0 0 1663 870.72"><g mask="url(&quot;#SvgjsMask1176&quot;)" fill="none"><rect width="1663" height="870.72" x="0" y="0" fill="#0A0F46"></rect><path d="M33.82 18.57L50.28 28.07L50.28 47.07L33.82 56.57L17.37 47.07L17.37 28.07zM17.37 47.07L33.82 56.57L33.82 75.57L17.37 85.07L0.92 75.57L0.92 56.57zM17.37 161.07L33.82 170.57L33.82 189.57L17.37 199.07L0.92 189.57L0.92 170.57zM17.37 332.07L33.82 341.57L33.82 360.57L17.37 370.07L0.92 360.57L0.92 341.57zM17.37 389.07L33.82 398.57L33.82 417.57L17.37 427.07L0.92 417.57L0.92 398.57zM33.82 531.57L50.28 541.07L50.28 560.07L33.82 569.57L17.37 560.07L17.37 541.07zM17.37 560.07L33.82 569.57L33.82 588.57L17.37 598.07L0.92 588.57L0.92 569.57zM33.82 645.57L50.28 655.07L50.28 674.07L33.82 683.57L17.37 674.07L17.37 655.07zM17.37 674.07L33.82 683.57L33.82 702.57L17.37 712.07L0.92 702.57L0.92 683.57zM33.82 816.57L50.28 826.07L50.28 845.07L33.82 854.57L17.37 845.07L17.37 826.07zM50.28 -9.93L66.73 -0.43L66.73 18.57L50.28 28.07L33.82 18.57L33.82 -0.43zM66.73 75.57L83.19 85.07L83.19 104.07L66.73 113.57L50.28 104.07L50.28 85.07zM50.28 104.07L66.73 113.57L66.73 132.57L50.28 142.07L33.82 132.57L33.82 113.57zM66.73 132.57L83.19 142.07L83.19 161.07L66.73 170.57L50.28 161.07L50.28 142.07zM50.28 218.07L66.73 227.57L66.73 246.57L50.28 256.07L33.82 246.57L33.82 227.57zM50.28 332.07L66.73 341.57L66.73 360.57L50.28 370.07L33.82 360.57L33.82 341.57zM66.73 474.57L83.19 484.07L83.19 503.07L66.73 512.57L50.28 503.07L50.28 484.07zM66.73 588.57L83.19 598.07L83.19 617.07L66.73 626.57L50.28 617.07L50.28 598.07zM50.28 674.07L66.73 683.57L66.73 702.57L50.28 712.07L33.82 702.57L33.82 683.57zM66.73 702.57L83.19 712.07L83.19 731.07L66.73 740.57L50.28 731.07L50.28 712.07zM50.28 788.07L66.73 797.57L66.73 816.57L50.28 826.07L33.82 816.57L33.82 797.57zM83.19 -9.93L99.64 -0.43L99.64 18.57L83.19 28.07L66.73 18.57L66.73 -0.43zM99.64 18.57L116.1 28.07L116.1 47.07L99.64 56.57L83.19 47.07L83.19 28.07zM99.64 75.57L116.1 85.07L116.1 104.07L99.64 113.57L83.19 104.07L83.19 85.07zM99.64 189.57L116.1 199.07L116.1 218.07L99.64 227.57L83.19 218.07L83.19 199.07zM99.64 303.57L116.1 313.07L116.1 332.07L99.64 341.57L83.19 332.07L83.19 313.07zM83.19 332.07L99.64 341.57L99.64 360.57L83.19 370.07L66.73 360.57L66.73 341.57zM99.64 360.57L116.1 370.07L116.1 389.07L99.64 398.57L83.19 389.07L83.19 370.07zM83.19 503.07L99.64 512.57L99.64 531.57L83.19 541.07L66.73 531.57L66.73 512.57zM83.19 617.07L99.64 626.57L99.64 645.57L83.19 655.07L66.73 645.57L66.73 626.57zM83.19 731.07L99.64 740.57L99.64 759.57L83.19 769.07L66.73 759.57L66.73 740.57zM132.55 18.57L149.01 28.07L149.01 47.07L132.55 56.57L116.1 47.07L116.1 28.07zM132.55 303.57L149.01 313.07L149.01 332.07L132.55 341.57L116.1 332.07L116.1 313.07zM132.55 360.57L149.01 370.07L149.01 389.07L132.55 398.57L116.1 389.07L116.1 370.07zM132.55 417.57L149.01 427.07L149.01 446.07L132.55 455.57L116.1 446.07L116.1 427.07zM116.1 446.07L132.55 455.57L132.55 474.57L116.1 484.07L99.64 474.57L99.64 455.57zM116.1 503.07L132.55 512.57L132.55 531.57L116.1 541.07L99.64 531.57L99.64 512.57zM132.55 531.57L149.01 541.07L149.01 560.07L132.55 569.57L116.1 560.07L116.1 541.07zM132.55 588.57L149.01 598.07L149.01 617.07L132.55 626.57L116.1 617.07L116.1 598.07zM116.1 788.07L132.55 797.57L132.55 816.57L116.1 826.07L99.64 816.57L99.64 797.57zM132.55 816.57L149.01 826.07L149.01 845.07L132.55 854.57L116.1 845.07L116.1 826.07zM132.55 873.57L149.01 883.07L149.01 902.07L132.55 911.57L116.1 902.07L116.1 883.07zM165.46 18.57L181.92 28.07L181.92 47.07L165.46 56.57L149.01 47.07L149.01 28.07zM149.01 161.07L165.46 170.57L165.46 189.57L149.01 199.07L132.55 189.57L132.55 170.57zM149.01 332.07L165.46 341.57L165.46 360.57L149.01 370.07L132.55 360.57L132.55 341.57zM165.46 360.57L181.92 370.07L181.92 389.07L165.46 398.57L149.01 389.07L149.01 370.07zM149.01 389.07L165.46 398.57L165.46 417.57L149.01 427.07L132.55 417.57L132.55 398.57zM149.01 446.07L165.46 455.57L165.46 474.57L149.01 484.07L132.55 474.57L132.55 455.57zM149.01 560.07L165.46 569.57L165.46 588.57L149.01 598.07L132.55 588.57L132.55 569.57zM165.46 645.57L181.92 655.07L181.92 674.07L165.46 683.57L149.01 674.07L149.01 655.07zM165.46 759.57L181.92 769.07L181.92 788.07L165.46 797.57L149.01 788.07L149.01 769.07zM181.92 104.07L198.37 113.57L198.37 132.57L181.92 142.07L165.46 132.57L165.46 113.57zM181.92 161.07L198.37 170.57L198.37 189.57L181.92 199.07L165.46 189.57L165.46 170.57zM181.92 332.07L198.37 341.57L198.37 360.57L181.92 370.07L165.46 360.57L165.46 341.57zM198.37 417.57L214.83 427.07L214.83 446.07L198.37 455.57L181.92 446.07L181.92 427.07zM198.37 531.57L214.83 541.07L214.83 560.07L198.37 569.57L181.92 560.07L181.92 541.07zM181.92 617.07L198.37 626.57L198.37 645.57L181.92 655.07L165.46 645.57L165.46 626.57zM181.92 674.07L198.37 683.57L198.37 702.57L181.92 712.07L165.46 702.57L165.46 683.57zM181.92 731.07L198.37 740.57L198.37 759.57L181.92 769.07L165.46 759.57L165.46 740.57zM198.37 759.57L214.83 769.07L214.83 788.07L198.37 797.57L181.92 788.07L181.92 769.07zM181.92 788.07L198.37 797.57L198.37 816.57L181.92 826.07L165.46 816.57L165.46 797.57zM214.83 47.07L231.28 56.57L231.28 75.57L214.83 85.07L198.37 75.57L198.37 56.57zM231.28 246.57L247.74 256.07L247.74 275.07L231.28 284.57L214.83 275.07L214.83 256.07zM231.28 303.57L247.74 313.07L247.74 332.07L231.28 341.57L214.83 332.07L214.83 313.07zM231.28 360.57L247.74 370.07L247.74 389.07L231.28 398.57L214.83 389.07L214.83 370.07zM214.83 389.07L231.28 398.57L231.28 417.57L214.83 427.07L198.37 417.57L198.37 398.57zM231.28 417.57L247.74 427.07L247.74 446.07L231.28 455.57L214.83 446.07L214.83 427.07zM214.83 503.07L231.28 512.57L231.28 531.57L214.83 541.07L198.37 531.57L198.37 512.57zM214.83 560.07L231.28 569.57L231.28 588.57L214.83 598.07L198.37 588.57L198.37 569.57zM231.28 702.57L247.74 712.07L247.74 731.07L231.28 740.57L214.83 731.07L214.83 712.07zM264.19 75.57L280.65 85.07L280.65 104.07L264.19 113.57L247.74 104.07L247.74 85.07zM247.74 104.07L264.19 113.57L264.19 132.57L247.74 142.07L231.28 132.57L231.28 113.57zM247.74 218.07L264.19 227.57L264.19 246.57L247.74 256.07L231.28 246.57L231.28 227.57zM264.19 360.57L280.65 370.07L280.65 389.07L264.19 398.57L247.74 389.07L247.74 370.07zM264.19 417.57L280.65 427.07L280.65 446.07L264.19 455.57L247.74 446.07L247.74 427.07zM247.74 446.07L264.19 455.57L264.19 474.57L247.74 484.07L231.28 474.57L231.28 455.57zM264.19 474.57L280.65 484.07L280.65 503.07L264.19 512.57L247.74 503.07L247.74 484.07zM247.74 503.07L264.19 512.57L264.19 531.57L247.74 541.07L231.28 531.57L231.28 512.57zM247.74 560.07L264.19 569.57L264.19 588.57L247.74 598.07L231.28 588.57L231.28 569.57zM264.19 588.57L280.65 598.07L280.65 617.07L264.19 626.57L247.74 617.07L247.74 598.07zM247.74 617.07L264.19 626.57L264.19 645.57L247.74 655.07L231.28 645.57L231.28 626.57zM264.19 816.57L280.65 826.07L280.65 845.07L264.19 854.57L247.74 845.07L247.74 826.07zM247.74 845.07L264.19 854.57L264.19 873.57L247.74 883.07L231.28 873.57L231.28 854.57zM280.65 47.07L297.1 56.57L297.1 75.57L280.65 85.07L264.19 75.57L264.19 56.57zM297.1 75.57L313.56 85.07L313.56 104.07L297.1 113.57L280.65 104.07L280.65 85.07zM280.65 161.07L297.1 170.57L297.1 189.57L280.65 199.07L264.19 189.57L264.19 170.57zM280.65 218.07L297.1 227.57L297.1 246.57L280.65 256.07L264.19 246.57L264.19 227.57zM280.65 332.07L297.1 341.57L297.1 360.57L280.65 370.07L264.19 360.57L264.19 341.57zM280.65 560.07L297.1 569.57L297.1 588.57L280.65 598.07L264.19 588.57L264.19 569.57zM297.1 759.57L313.56 769.07L313.56 788.07L297.1 797.57L280.65 788.07L280.65 769.07zM280.65 788.07L297.1 797.57L297.1 816.57L280.65 826.07L264.19 816.57L264.19 797.57zM280.65 845.07L297.1 854.57L297.1 873.57L280.65 883.07L264.19 873.57L264.19 854.57zM313.56 -9.93L330.01 -0.43L330.01 18.57L313.56 28.07L297.1 18.57L297.1 -0.43zM330.01 189.57L346.47 199.07L346.47 218.07L330.01 227.57L313.56 218.07L313.56 199.07zM330.01 246.57L346.47 256.07L346.47 275.07L330.01 284.57L313.56 275.07L313.56 256.07zM313.56 389.07L330.01 398.57L330.01 417.57L313.56 427.07L297.1 417.57L297.1 398.57zM313.56 446.07L330.01 455.57L330.01 474.57L313.56 484.07L297.1 474.57L297.1 455.57zM330.01 474.57L346.47 484.07L346.47 503.07L330.01 512.57L313.56 503.07L313.56 484.07zM313.56 560.07L330.01 569.57L330.01 588.57L313.56 598.07L297.1 588.57L297.1 569.57zM330.01 645.57L346.47 655.07L346.47 674.07L330.01 683.57L313.56 674.07L313.56 655.07zM330.01 702.57L346.47 712.07L346.47 731.07L330.01 740.57L313.56 731.07L313.56 712.07zM313.56 731.07L330.01 740.57L330.01 759.57L313.56 769.07L297.1 759.57L297.1 740.57zM330.01 759.57L346.47 769.07L346.47 788.07L330.01 797.57L313.56 788.07L313.56 769.07zM330.01 873.57L346.47 883.07L346.47 902.07L330.01 911.57L313.56 902.07L313.56 883.07zM346.47 47.07L362.92 56.57L362.92 75.57L346.47 85.07L330.01 75.57L330.01 56.57zM362.92 75.57L379.38 85.07L379.38 104.07L362.92 113.57L346.47 104.07L346.47 85.07zM346.47 104.07L362.92 113.57L362.92 132.57L346.47 142.07L330.01 132.57L330.01 113.57zM346.47 161.07L362.92 170.57L362.92 189.57L346.47 199.07L330.01 189.57L330.01 170.57zM362.92 246.57L379.38 256.07L379.38 275.07L362.92 284.57L346.47 275.07L346.47 256.07zM346.47 275.07L362.92 284.57L362.92 303.57L346.47 313.07L330.01 303.57L330.01 284.57zM362.92 360.57L379.38 370.07L379.38 389.07L362.92 398.57L346.47 389.07L346.47 370.07zM346.47 389.07L362.92 398.57L362.92 417.57L346.47 427.07L330.01 417.57L330.01 398.57zM362.92 474.57L379.38 484.07L379.38 503.07L362.92 512.57L346.47 503.07L346.47 484.07zM346.47 560.07L362.92 569.57L362.92 588.57L346.47 598.07L330.01 588.57L330.01 569.57zM362.92 588.57L379.38 598.07L379.38 617.07L362.92 626.57L346.47 617.07L346.47 598.07zM362.92 702.57L379.38 712.07L379.38 731.07L362.92 740.57L346.47 731.07L346.47 712.07zM346.47 731.07L362.92 740.57L362.92 759.57L346.47 769.07L330.01 759.57L330.01 740.57zM346.47 845.07L362.92 854.57L362.92 873.57L346.47 883.07L330.01 873.57L330.01 854.57zM379.38 47.07L395.83 56.57L395.83 75.57L379.38 85.07L362.92 75.57L362.92 56.57zM395.83 132.57L412.29 142.07L412.29 161.07L395.83 170.57L379.38 161.07L379.38 142.07zM379.38 161.07L395.83 170.57L395.83 189.57L379.38 199.07L362.92 189.57L362.92 170.57zM379.38 218.07L395.83 227.57L395.83 246.57L379.38 256.07L362.92 246.57L362.92 227.57zM379.38 275.07L395.83 284.57L395.83 303.57L379.38 313.07L362.92 303.57L362.92 284.57zM395.83 303.57L412.29 313.07L412.29 332.07L395.83 341.57L379.38 332.07L379.38 313.07zM379.38 389.07L395.83 398.57L395.83 417.57L379.38 427.07L362.92 417.57L362.92 398.57zM379.38 617.07L395.83 626.57L395.83 645.57L379.38 655.07L362.92 645.57L362.92 626.57zM395.83 645.57L412.29 655.07L412.29 674.07L395.83 683.57L379.38 674.07L379.38 655.07zM379.38 674.07L395.83 683.57L395.83 702.57L379.38 712.07L362.92 702.57L362.92 683.57zM395.83 702.57L412.29 712.07L412.29 731.07L395.83 740.57L379.38 731.07L379.38 712.07zM379.38 788.07L395.83 797.57L395.83 816.57L379.38 826.07L362.92 816.57L362.92 797.57zM379.38 845.07L395.83 854.57L395.83 873.57L379.38 883.07L362.92 873.57L362.92 854.57zM395.83 873.57L412.29 883.07L412.29 902.07L395.83 911.57L379.38 902.07L379.38 883.07zM412.29 -9.93L428.74 -0.43L428.74 18.57L412.29 28.07L395.83 18.57L395.83 -0.43zM428.74 189.57L445.2 199.07L445.2 218.07L428.74 227.57L412.29 218.07L412.29 199.07zM412.29 218.07L428.74 227.57L428.74 246.57L412.29 256.07L395.83 246.57L395.83 227.57zM428.74 360.57L445.2 370.07L445.2 389.07L428.74 398.57L412.29 389.07L412.29 370.07zM412.29 560.07L428.74 569.57L428.74 588.57L412.29 598.07L395.83 588.57L395.83 569.57zM412.29 731.07L428.74 740.57L428.74 759.57L412.29 769.07L395.83 759.57L395.83 740.57zM428.74 759.57L445.2 769.07L445.2 788.07L428.74 797.57L412.29 788.07L412.29 769.07zM428.74 873.57L445.2 883.07L445.2 902.07L428.74 911.57L412.29 902.07L412.29 883.07zM461.65 75.57L478.11 85.07L478.11 104.07L461.65 113.57L445.2 104.07L445.2 85.07zM461.65 189.57L478.11 199.07L478.11 218.07L461.65 227.57L445.2 218.07L445.2 199.07zM461.65 417.57L478.11 427.07L478.11 446.07L461.65 455.57L445.2 446.07L445.2 427.07zM445.2 446.07L461.65 455.57L461.65 474.57L445.2 484.07L428.74 474.57L428.74 455.57zM445.2 674.07L461.65 683.57L461.65 702.57L445.2 712.07L428.74 702.57L428.74 683.57zM461.65 759.57L478.11 769.07L478.11 788.07L461.65 797.57L445.2 788.07L445.2 769.07zM478.11 -9.93L494.56 -0.43L494.56 18.57L478.11 28.07L461.65 18.57L461.65 -0.43zM494.56 18.57L511.02 28.07L511.02 47.07L494.56 56.57L478.11 47.07L478.11 28.07zM478.11 47.07L494.56 56.57L494.56 75.57L478.11 85.07L461.65 75.57L461.65 56.57zM478.11 161.07L494.56 170.57L494.56 189.57L478.11 199.07L461.65 189.57L461.65 170.57zM494.56 360.57L511.02 370.07L511.02 389.07L494.56 398.57L478.11 389.07L478.11 370.07zM478.11 503.07L494.56 512.57L494.56 531.57L478.11 541.07L461.65 531.57L461.65 512.57zM478.11 560.07L494.56 569.57L494.56 588.57L478.11 598.07L461.65 588.57L461.65 569.57zM478.11 617.07L494.56 626.57L494.56 645.57L478.11 655.07L461.65 645.57L461.65 626.57zM494.56 702.57L511.02 712.07L511.02 731.07L494.56 740.57L478.11 731.07L478.11 712.07zM478.11 731.07L494.56 740.57L494.56 759.57L478.11 769.07L461.65 759.57L461.65 740.57zM478.11 788.07L494.56 797.57L494.56 816.57L478.11 826.07L461.65 816.57L461.65 797.57zM494.56 873.57L511.02 883.07L511.02 902.07L494.56 911.57L478.11 902.07L478.11 883.07zM527.47 75.57L543.93 85.07L543.93 104.07L527.47 113.57L511.02 104.07L511.02 85.07zM527.47 132.57L543.93 142.07L543.93 161.07L527.47 170.57L511.02 161.07L511.02 142.07zM511.02 161.07L527.47 170.57L527.47 189.57L511.02 199.07L494.56 189.57L494.56 170.57zM511.02 218.07L527.47 227.57L527.47 246.57L511.02 256.07L494.56 246.57L494.56 227.57zM527.47 246.57L543.93 256.07L543.93 275.07L527.47 284.57L511.02 275.07L511.02 256.07zM511.02 275.07L527.47 284.57L527.47 303.57L511.02 313.07L494.56 303.57L494.56 284.57zM511.02 332.07L527.47 341.57L527.47 360.57L511.02 370.07L494.56 360.57L494.56 341.57zM527.47 360.57L543.93 370.07L543.93 389.07L527.47 398.57L511.02 389.07L511.02 370.07zM511.02 389.07L527.47 398.57L527.47 417.57L511.02 427.07L494.56 417.57L494.56 398.57zM527.47 645.57L543.93 655.07L543.93 674.07L527.47 683.57L511.02 674.07L511.02 655.07zM511.02 731.07L527.47 740.57L527.47 759.57L511.02 769.07L494.56 759.57L494.56 740.57zM527.47 759.57L543.93 769.07L543.93 788.07L527.47 797.57L511.02 788.07L511.02 769.07zM527.47 816.57L543.93 826.07L543.93 845.07L527.47 854.57L511.02 845.07L511.02 826.07zM543.93 -9.93L560.38 -0.43L560.38 18.57L543.93 28.07L527.47 18.57L527.47 -0.43zM560.38 18.57L576.84 28.07L576.84 47.07L560.38 56.57L543.93 47.07L543.93 28.07zM543.93 47.07L560.38 56.57L560.38 75.57L543.93 85.07L527.47 75.57L527.47 56.57zM560.38 75.57L576.84 85.07L576.84 104.07L560.38 113.57L543.93 104.07L543.93 85.07zM543.93 161.07L560.38 170.57L560.38 189.57L543.93 199.07L527.47 189.57L527.47 170.57zM543.93 332.07L560.38 341.57L560.38 360.57L543.93 370.07L527.47 360.57L527.47 341.57zM560.38 417.57L576.84 427.07L576.84 446.07L560.38 455.57L543.93 446.07L543.93 427.07zM543.93 503.07L560.38 512.57L560.38 531.57L543.93 541.07L527.47 531.57L527.47 512.57zM560.38 531.57L576.84 541.07L576.84 560.07L560.38 569.57L543.93 560.07L543.93 541.07zM560.38 702.57L576.84 712.07L576.84 731.07L560.38 740.57L543.93 731.07L543.93 712.07zM560.38 759.57L576.84 769.07L576.84 788.07L560.38 797.57L543.93 788.07L543.93 769.07zM543.93 845.07L560.38 854.57L560.38 873.57L543.93 883.07L527.47 873.57L527.47 854.57zM560.38 873.57L576.84 883.07L576.84 902.07L560.38 911.57L543.93 902.07L543.93 883.07zM576.84 47.07L593.29 56.57L593.29 75.57L576.84 85.07L560.38 75.57L560.38 56.57zM593.29 75.57L609.75 85.07L609.75 104.07L593.29 113.57L576.84 104.07L576.84 85.07zM576.84 104.07L593.29 113.57L593.29 132.57L576.84 142.07L560.38 132.57L560.38 113.57zM576.84 161.07L593.29 170.57L593.29 189.57L576.84 199.07L560.38 189.57L560.38 170.57zM593.29 189.57L609.75 199.07L609.75 218.07L593.29 227.57L576.84 218.07L576.84 199.07zM576.84 218.07L593.29 227.57L593.29 246.57L576.84 256.07L560.38 246.57L560.38 227.57zM593.29 246.57L609.75 256.07L609.75 275.07L593.29 284.57L576.84 275.07L576.84 256.07zM576.84 275.07L593.29 284.57L593.29 303.57L576.84 313.07L560.38 303.57L560.38 284.57zM576.84 389.07L593.29 398.57L593.29 417.57L576.84 427.07L560.38 417.57L560.38 398.57zM593.29 645.57L609.75 655.07L609.75 674.07L593.29 683.57L576.84 674.07L576.84 655.07zM593.29 702.57L609.75 712.07L609.75 731.07L593.29 740.57L576.84 731.07L576.84 712.07zM576.84 845.07L593.29 854.57L593.29 873.57L576.84 883.07L560.38 873.57L560.38 854.57zM609.75 47.07L626.2 56.57L626.2 75.57L609.75 85.07L593.29 75.57L593.29 56.57zM626.2 303.57L642.66 313.07L642.66 332.07L626.2 341.57L609.75 332.07L609.75 313.07zM609.75 332.07L626.2 341.57L626.2 360.57L609.75 370.07L593.29 360.57L593.29 341.57zM609.75 389.07L626.2 398.57L626.2 417.57L609.75 427.07L593.29 417.57L593.29 398.57zM609.75 446.07L626.2 455.57L626.2 474.57L609.75 484.07L593.29 474.57L593.29 455.57zM609.75 503.07L626.2 512.57L626.2 531.57L609.75 541.07L593.29 531.57L593.29 512.57zM626.2 531.57L642.66 541.07L642.66 560.07L626.2 569.57L609.75 560.07L609.75 541.07zM609.75 560.07L626.2 569.57L626.2 588.57L609.75 598.07L593.29 588.57L593.29 569.57zM609.75 617.07L626.2 626.57L626.2 645.57L609.75 655.07L593.29 645.57L593.29 626.57zM626.2 645.57L642.66 655.07L642.66 674.07L626.2 683.57L609.75 674.07L609.75 655.07zM642.66 -9.93L659.11 -0.43L659.11 18.57L642.66 28.07L626.2 18.57L626.2 -0.43zM659.11 18.57L675.57 28.07L675.57 47.07L659.11 56.57L642.66 47.07L642.66 28.07zM659.11 75.57L675.57 85.07L675.57 104.07L659.11 113.57L642.66 104.07L642.66 85.07zM642.66 332.07L659.11 341.57L659.11 360.57L642.66 370.07L626.2 360.57L626.2 341.57zM642.66 389.07L659.11 398.57L659.11 417.57L642.66 427.07L626.2 417.57L626.2 398.57zM659.11 474.57L675.57 484.07L675.57 503.07L659.11 512.57L642.66 503.07L642.66 484.07zM642.66 560.07L659.11 569.57L659.11 588.57L642.66 598.07L626.2 588.57L626.2 569.57zM642.66 788.07L659.11 797.57L659.11 816.57L642.66 826.07L626.2 816.57L626.2 797.57zM659.11 816.57L675.57 826.07L675.57 845.07L659.11 854.57L642.66 845.07L642.66 826.07zM642.66 845.07L659.11 854.57L659.11 873.57L642.66 883.07L626.2 873.57L626.2 854.57zM659.11 873.57L675.57 883.07L675.57 902.07L659.11 911.57L642.66 902.07L642.66 883.07zM692.02 18.57L708.48 28.07L708.48 47.07L692.02 56.57L675.57 47.07L675.57 28.07zM675.57 47.07L692.02 56.57L692.02 75.57L675.57 85.07L659.11 75.57L659.11 56.57zM675.57 104.07L692.02 113.57L692.02 132.57L675.57 142.07L659.11 132.57L659.11 113.57zM692.02 189.57L708.48 199.07L708.48 218.07L692.02 227.57L675.57 218.07L675.57 199.07zM692.02 246.57L708.48 256.07L708.48 275.07L692.02 284.57L675.57 275.07L675.57 256.07zM675.57 275.07L692.02 284.57L692.02 303.57L675.57 313.07L659.11 303.57L659.11 284.57zM675.57 332.07L692.02 341.57L692.02 360.57L675.57 370.07L659.11 360.57L659.11 341.57zM692.02 360.57L708.48 370.07L708.48 389.07L692.02 398.57L675.57 389.07L675.57 370.07zM675.57 389.07L692.02 398.57L692.02 417.57L675.57 427.07L659.11 417.57L659.11 398.57zM675.57 446.07L692.02 455.57L692.02 474.57L675.57 484.07L659.11 474.57L659.11 455.57zM692.02 474.57L708.48 484.07L708.48 503.07L692.02 512.57L675.57 503.07L675.57 484.07zM675.57 560.07L692.02 569.57L692.02 588.57L675.57 598.07L659.11 588.57L659.11 569.57zM692.02 588.57L708.48 598.07L708.48 617.07L692.02 626.57L675.57 617.07L675.57 598.07zM675.57 617.07L692.02 626.57L692.02 645.57L675.57 655.07L659.11 645.57L659.11 626.57zM692.02 645.57L708.48 655.07L708.48 674.07L692.02 683.57L675.57 674.07L675.57 655.07zM675.57 674.07L692.02 683.57L692.02 702.57L675.57 712.07L659.11 702.57L659.11 683.57zM692.02 759.57L708.48 769.07L708.48 788.07L692.02 797.57L675.57 788.07L675.57 769.07zM708.48 -9.93L724.93 -0.43L724.93 18.57L708.48 28.07L692.02 18.57L692.02 -0.43zM724.93 75.57L741.39 85.07L741.39 104.07L724.93 113.57L708.48 104.07L708.48 85.07zM708.48 104.07L724.93 113.57L724.93 132.57L708.48 142.07L692.02 132.57L692.02 113.57zM708.48 218.07L724.93 227.57L724.93 246.57L708.48 256.07L692.02 246.57L692.02 227.57zM724.93 246.57L741.39 256.07L741.39 275.07L724.93 284.57L708.48 275.07L708.48 256.07zM724.93 303.57L741.39 313.07L741.39 332.07L724.93 341.57L708.48 332.07L708.48 313.07zM708.48 332.07L724.93 341.57L724.93 360.57L708.48 370.07L692.02 360.57L692.02 341.57zM708.48 389.07L724.93 398.57L724.93 417.57L708.48 427.07L692.02 417.57L692.02 398.57zM724.93 417.57L741.39 427.07L741.39 446.07L724.93 455.57L708.48 446.07L708.48 427.07zM708.48 503.07L724.93 512.57L724.93 531.57L708.48 541.07L692.02 531.57L692.02 512.57zM708.48 560.07L724.93 569.57L724.93 588.57L708.48 598.07L692.02 588.57L692.02 569.57zM724.93 702.57L741.39 712.07L741.39 731.07L724.93 740.57L708.48 731.07L708.48 712.07zM708.48 731.07L724.93 740.57L724.93 759.57L708.48 769.07L692.02 759.57L692.02 740.57zM708.48 788.07L724.93 797.57L724.93 816.57L708.48 826.07L692.02 816.57L692.02 797.57zM708.48 845.07L724.93 854.57L724.93 873.57L708.48 883.07L692.02 873.57L692.02 854.57zM757.84 75.57L774.3 85.07L774.3 104.07L757.84 113.57L741.39 104.07L741.39 85.07zM741.39 104.07L757.84 113.57L757.84 132.57L741.39 142.07L724.93 132.57L724.93 113.57zM757.84 132.57L774.3 142.07L774.3 161.07L757.84 170.57L741.39 161.07L741.39 142.07zM757.84 246.57L774.3 256.07L774.3 275.07L757.84 284.57L741.39 275.07L741.39 256.07zM741.39 332.07L757.84 341.57L757.84 360.57L741.39 370.07L724.93 360.57L724.93 341.57zM757.84 417.57L774.3 427.07L774.3 446.07L757.84 455.57L741.39 446.07L741.39 427.07zM741.39 446.07L757.84 455.57L757.84 474.57L741.39 484.07L724.93 474.57L724.93 455.57zM741.39 503.07L757.84 512.57L757.84 531.57L741.39 541.07L724.93 531.57L724.93 512.57zM757.84 816.57L774.3 826.07L774.3 845.07L757.84 854.57L741.39 845.07L741.39 826.07zM774.3 -9.93L790.75 -0.43L790.75 18.57L774.3 28.07L757.84 18.57L757.84 -0.43zM790.75 18.57L807.21 28.07L807.21 47.07L790.75 56.57L774.3 47.07L774.3 28.07zM790.75 75.57L807.21 85.07L807.21 104.07L790.75 113.57L774.3 104.07L774.3 85.07zM774.3 104.07L790.75 113.57L790.75 132.57L774.3 142.07L757.84 132.57L757.84 113.57zM774.3 161.07L790.75 170.57L790.75 189.57L774.3 199.07L757.84 189.57L757.84 170.57zM774.3 218.07L790.75 227.57L790.75 246.57L774.3 256.07L757.84 246.57L757.84 227.57zM774.3 332.07L790.75 341.57L790.75 360.57L774.3 370.07L757.84 360.57L757.84 341.57zM790.75 588.57L807.21 598.07L807.21 617.07L790.75 626.57L774.3 617.07L774.3 598.07zM774.3 617.07L790.75 626.57L790.75 645.57L774.3 655.07L757.84 645.57L757.84 626.57zM790.75 759.57L807.21 769.07L807.21 788.07L790.75 797.57L774.3 788.07L774.3 769.07zM774.3 845.07L790.75 854.57L790.75 873.57L774.3 883.07L757.84 873.57L757.84 854.57zM790.75 873.57L807.21 883.07L807.21 902.07L790.75 911.57L774.3 902.07L774.3 883.07zM807.21 -9.93L823.66 -0.43L823.66 18.57L807.21 28.07L790.75 18.57L790.75 -0.43zM823.66 18.57L840.12 28.07L840.12 47.07L823.66 56.57L807.21 47.07L807.21 28.07zM823.66 132.57L840.12 142.07L840.12 161.07L823.66 170.57L807.21 161.07L807.21 142.07zM807.21 218.07L823.66 227.57L823.66 246.57L807.21 256.07L790.75 246.57L790.75 227.57zM807.21 332.07L823.66 341.57L823.66 360.57L807.21 370.07L790.75 360.57L790.75 341.57zM823.66 360.57L840.12 370.07L840.12 389.07L823.66 398.57L807.21 389.07L807.21 370.07zM823.66 474.57L840.12 484.07L840.12 503.07L823.66 512.57L807.21 503.07L807.21 484.07zM807.21 503.07L823.66 512.57L823.66 531.57L807.21 541.07L790.75 531.57L790.75 512.57zM823.66 531.57L840.12 541.07L840.12 560.07L823.66 569.57L807.21 560.07L807.21 541.07zM823.66 588.57L840.12 598.07L840.12 617.07L823.66 626.57L807.21 617.07L807.21 598.07zM807.21 617.07L823.66 626.57L823.66 645.57L807.21 655.07L790.75 645.57L790.75 626.57zM823.66 702.57L840.12 712.07L840.12 731.07L823.66 740.57L807.21 731.07L807.21 712.07zM823.66 759.57L840.12 769.07L840.12 788.07L823.66 797.57L807.21 788.07L807.21 769.07zM807.21 788.07L823.66 797.57L823.66 816.57L807.21 826.07L790.75 816.57L790.75 797.57zM807.21 845.07L823.66 854.57L823.66 873.57L807.21 883.07L790.75 873.57L790.75 854.57zM823.66 873.57L840.12 883.07L840.12 902.07L823.66 911.57L807.21 902.07L807.21 883.07zM856.57 18.57L873.03 28.07L873.03 47.07L856.57 56.57L840.12 47.07L840.12 28.07zM840.12 47.07L856.57 56.57L856.57 75.57L840.12 85.07L823.66 75.57L823.66 56.57zM856.57 246.57L873.03 256.07L873.03 275.07L856.57 284.57L840.12 275.07L840.12 256.07zM856.57 303.57L873.03 313.07L873.03 332.07L856.57 341.57L840.12 332.07L840.12 313.07zM840.12 389.07L856.57 398.57L856.57 417.57L840.12 427.07L823.66 417.57L823.66 398.57zM856.57 474.57L873.03 484.07L873.03 503.07L856.57 512.57L840.12 503.07L840.12 484.07zM840.12 503.07L856.57 512.57L856.57 531.57L840.12 541.07L823.66 531.57L823.66 512.57zM840.12 560.07L856.57 569.57L856.57 588.57L840.12 598.07L823.66 588.57L823.66 569.57zM856.57 588.57L873.03 598.07L873.03 617.07L856.57 626.57L840.12 617.07L840.12 598.07zM856.57 645.57L873.03 655.07L873.03 674.07L856.57 683.57L840.12 674.07L840.12 655.07zM856.57 759.57L873.03 769.07L873.03 788.07L856.57 797.57L840.12 788.07L840.12 769.07zM840.12 788.07L856.57 797.57L856.57 816.57L840.12 826.07L823.66 816.57L823.66 797.57zM889.48 189.57L905.94 199.07L905.94 218.07L889.48 227.57L873.03 218.07L873.03 199.07zM873.03 275.07L889.48 284.57L889.48 303.57L873.03 313.07L856.57 303.57L856.57 284.57zM889.48 303.57L905.94 313.07L905.94 332.07L889.48 341.57L873.03 332.07L873.03 313.07zM873.03 332.07L889.48 341.57L889.48 360.57L873.03 370.07L856.57 360.57L856.57 341.57zM873.03 389.07L889.48 398.57L889.48 417.57L873.03 427.07L856.57 417.57L856.57 398.57zM873.03 503.07L889.48 512.57L889.48 531.57L873.03 541.07L856.57 531.57L856.57 512.57zM889.48 531.57L905.94 541.07L905.94 560.07L889.48 569.57L873.03 560.07L873.03 541.07zM873.03 560.07L889.48 569.57L889.48 588.57L873.03 598.07L856.57 588.57L856.57 569.57zM889.48 588.57L905.94 598.07L905.94 617.07L889.48 626.57L873.03 617.07L873.03 598.07zM889.48 645.57L905.94 655.07L905.94 674.07L889.48 683.57L873.03 674.07L873.03 655.07zM873.03 674.07L889.48 683.57L889.48 702.57L873.03 712.07L856.57 702.57L856.57 683.57zM873.03 731.07L889.48 740.57L889.48 759.57L873.03 769.07L856.57 759.57L856.57 740.57zM889.48 816.57L905.94 826.07L905.94 845.07L889.48 854.57L873.03 845.07L873.03 826.07zM922.39 18.57L938.85 28.07L938.85 47.07L922.39 56.57L905.94 47.07L905.94 28.07zM905.94 47.07L922.39 56.57L922.39 75.57L905.94 85.07L889.48 75.57L889.48 56.57zM922.39 132.57L938.85 142.07L938.85 161.07L922.39 170.57L905.94 161.07L905.94 142.07zM905.94 161.07L922.39 170.57L922.39 189.57L905.94 199.07L889.48 189.57L889.48 170.57zM905.94 275.07L922.39 284.57L922.39 303.57L905.94 313.07L889.48 303.57L889.48 284.57zM905.94 389.07L922.39 398.57L922.39 417.57L905.94 427.07L889.48 417.57L889.48 398.57zM922.39 417.57L938.85 427.07L938.85 446.07L922.39 455.57L905.94 446.07L905.94 427.07zM905.94 446.07L922.39 455.57L922.39 474.57L905.94 484.07L889.48 474.57L889.48 455.57zM922.39 474.57L938.85 484.07L938.85 503.07L922.39 512.57L905.94 503.07L905.94 484.07zM922.39 531.57L938.85 541.07L938.85 560.07L922.39 569.57L905.94 560.07L905.94 541.07zM922.39 645.57L938.85 655.07L938.85 674.07L922.39 683.57L905.94 674.07L905.94 655.07zM905.94 731.07L922.39 740.57L922.39 759.57L905.94 769.07L889.48 759.57L889.48 740.57zM922.39 873.57L938.85 883.07L938.85 902.07L922.39 911.57L905.94 902.07L905.94 883.07zM938.85 -9.93L955.3 -0.43L955.3 18.57L938.85 28.07L922.39 18.57L922.39 -0.43zM955.3 189.57L971.76 199.07L971.76 218.07L955.3 227.57L938.85 218.07L938.85 199.07zM955.3 303.57L971.76 313.07L971.76 332.07L955.3 341.57L938.85 332.07L938.85 313.07zM955.3 360.57L971.76 370.07L971.76 389.07L955.3 398.57L938.85 389.07L938.85 370.07zM938.85 389.07L955.3 398.57L955.3 417.57L938.85 427.07L922.39 417.57L922.39 398.57zM955.3 417.57L971.76 427.07L971.76 446.07L955.3 455.57L938.85 446.07L938.85 427.07zM938.85 446.07L955.3 455.57L955.3 474.57L938.85 484.07L922.39 474.57L922.39 455.57zM938.85 503.07L955.3 512.57L955.3 531.57L938.85 541.07L922.39 531.57L922.39 512.57zM938.85 560.07L955.3 569.57L955.3 588.57L938.85 598.07L922.39 588.57L922.39 569.57zM955.3 588.57L971.76 598.07L971.76 617.07L955.3 626.57L938.85 617.07L938.85 598.07zM938.85 617.07L955.3 626.57L955.3 645.57L938.85 655.07L922.39 645.57L922.39 626.57zM938.85 788.07L955.3 797.57L955.3 816.57L938.85 826.07L922.39 816.57L922.39 797.57zM938.85 845.07L955.3 854.57L955.3 873.57L938.85 883.07L922.39 873.57L922.39 854.57zM955.3 873.57L971.76 883.07L971.76 902.07L955.3 911.57L938.85 902.07L938.85 883.07zM971.76 218.07L988.21 227.57L988.21 246.57L971.76 256.07L955.3 246.57L955.3 227.57zM971.76 275.07L988.21 284.57L988.21 303.57L971.76 313.07L955.3 303.57L955.3 284.57zM988.21 303.57L1004.67 313.07L1004.67 332.07L988.21 341.57L971.76 332.07L971.76 313.07zM971.76 332.07L988.21 341.57L988.21 360.57L971.76 370.07L955.3 360.57L955.3 341.57zM971.76 446.07L988.21 455.57L988.21 474.57L971.76 484.07L955.3 474.57L955.3 455.57zM971.76 560.07L988.21 569.57L988.21 588.57L971.76 598.07L955.3 588.57L955.3 569.57zM988.21 759.57L1004.67 769.07L1004.67 788.07L988.21 797.57L971.76 788.07L971.76 769.07zM971.76 788.07L988.21 797.57L988.21 816.57L971.76 826.07L955.3 816.57L955.3 797.57zM971.76 845.07L988.21 854.57L988.21 873.57L971.76 883.07L955.3 873.57L955.3 854.57zM1021.12 18.57L1037.58 28.07L1037.58 47.07L1021.12 56.57L1004.67 47.07L1004.67 28.07zM1004.67 47.07L1021.12 56.57L1021.12 75.57L1004.67 85.07L988.21 75.57L988.21 56.57zM1004.67 218.07L1021.12 227.57L1021.12 246.57L1004.67 256.07L988.21 246.57L988.21 227.57zM1021.12 246.57L1037.58 256.07L1037.58 275.07L1021.12 284.57L1004.67 275.07L1004.67 256.07zM1021.12 303.57L1037.58 313.07L1037.58 332.07L1021.12 341.57L1004.67 332.07L1004.67 313.07zM1021.12 360.57L1037.58 370.07L1037.58 389.07L1021.12 398.57L1004.67 389.07L1004.67 370.07zM1004.67 389.07L1021.12 398.57L1021.12 417.57L1004.67 427.07L988.21 417.57L988.21 398.57zM1021.12 417.57L1037.58 427.07L1037.58 446.07L1021.12 455.57L1004.67 446.07L1004.67 427.07zM1004.67 446.07L1021.12 455.57L1021.12 474.57L1004.67 484.07L988.21 474.57L988.21 455.57zM1021.12 474.57L1037.58 484.07L1037.58 503.07L1021.12 512.57L1004.67 503.07L1004.67 484.07zM1004.67 503.07L1021.12 512.57L1021.12 531.57L1004.67 541.07L988.21 531.57L988.21 512.57zM1004.67 560.07L1021.12 569.57L1021.12 588.57L1004.67 598.07L988.21 588.57L988.21 569.57zM1004.67 674.07L1021.12 683.57L1021.12 702.57L1004.67 712.07L988.21 702.57L988.21 683.57zM1021.12 702.57L1037.58 712.07L1037.58 731.07L1021.12 740.57L1004.67 731.07L1004.67 712.07zM1004.67 731.07L1021.12 740.57L1021.12 759.57L1004.67 769.07L988.21 759.57L988.21 740.57zM1021.12 759.57L1037.58 769.07L1037.58 788.07L1021.12 797.57L1004.67 788.07L1004.67 769.07zM1004.67 788.07L1021.12 797.57L1021.12 816.57L1004.67 826.07L988.21 816.57L988.21 797.57zM1021.12 816.57L1037.58 826.07L1037.58 845.07L1021.12 854.57L1004.67 845.07L1004.67 826.07zM1004.67 845.07L1021.12 854.57L1021.12 873.57L1004.67 883.07L988.21 873.57L988.21 854.57zM1037.58 -9.93L1054.03 -0.43L1054.03 18.57L1037.58 28.07L1021.12 18.57L1021.12 -0.43zM1037.58 47.07L1054.03 56.57L1054.03 75.57L1037.58 85.07L1021.12 75.57L1021.12 56.57zM1054.03 75.57L1070.49 85.07L1070.49 104.07L1054.03 113.57L1037.58 104.07L1037.58 85.07zM1037.58 161.07L1054.03 170.57L1054.03 189.57L1037.58 199.07L1021.12 189.57L1021.12 170.57zM1054.03 303.57L1070.49 313.07L1070.49 332.07L1054.03 341.57L1037.58 332.07L1037.58 313.07zM1037.58 332.07L1054.03 341.57L1054.03 360.57L1037.58 370.07L1021.12 360.57L1021.12 341.57zM1037.58 560.07L1054.03 569.57L1054.03 588.57L1037.58 598.07L1021.12 588.57L1021.12 569.57zM1054.03 588.57L1070.49 598.07L1070.49 617.07L1054.03 626.57L1037.58 617.07L1037.58 598.07zM1054.03 702.57L1070.49 712.07L1070.49 731.07L1054.03 740.57L1037.58 731.07L1037.58 712.07zM1037.58 731.07L1054.03 740.57L1054.03 759.57L1037.58 769.07L1021.12 759.57L1021.12 740.57zM1054.03 759.57L1070.49 769.07L1070.49 788.07L1054.03 797.57L1037.58 788.07L1037.58 769.07zM1054.03 816.57L1070.49 826.07L1070.49 845.07L1054.03 854.57L1037.58 845.07L1037.58 826.07zM1070.49 -9.93L1086.94 -0.43L1086.94 18.57L1070.49 28.07L1054.03 18.57L1054.03 -0.43zM1086.94 18.57L1103.4 28.07L1103.4 47.07L1086.94 56.57L1070.49 47.07L1070.49 28.07zM1070.49 47.07L1086.94 56.57L1086.94 75.57L1070.49 85.07L1054.03 75.57L1054.03 56.57zM1070.49 161.07L1086.94 170.57L1086.94 189.57L1070.49 199.07L1054.03 189.57L1054.03 170.57zM1086.94 189.57L1103.4 199.07L1103.4 218.07L1086.94 227.57L1070.49 218.07L1070.49 199.07zM1070.49 218.07L1086.94 227.57L1086.94 246.57L1070.49 256.07L1054.03 246.57L1054.03 227.57zM1086.94 303.57L1103.4 313.07L1103.4 332.07L1086.94 341.57L1070.49 332.07L1070.49 313.07zM1070.49 389.07L1086.94 398.57L1086.94 417.57L1070.49 427.07L1054.03 417.57L1054.03 398.57zM1070.49 503.07L1086.94 512.57L1086.94 531.57L1070.49 541.07L1054.03 531.57L1054.03 512.57zM1086.94 531.57L1103.4 541.07L1103.4 560.07L1086.94 569.57L1070.49 560.07L1070.49 541.07zM1070.49 560.07L1086.94 569.57L1086.94 588.57L1070.49 598.07L1054.03 588.57L1054.03 569.57zM1086.94 588.57L1103.4 598.07L1103.4 617.07L1086.94 626.57L1070.49 617.07L1070.49 598.07zM1070.49 731.07L1086.94 740.57L1086.94 759.57L1070.49 769.07L1054.03 759.57L1054.03 740.57zM1086.94 873.57L1103.4 883.07L1103.4 902.07L1086.94 911.57L1070.49 902.07L1070.49 883.07zM1103.4 -9.93L1119.85 -0.43L1119.85 18.57L1103.4 28.07L1086.94 18.57L1086.94 -0.43zM1103.4 47.07L1119.85 56.57L1119.85 75.57L1103.4 85.07L1086.94 75.57L1086.94 56.57zM1119.85 75.57L1136.31 85.07L1136.31 104.07L1119.85 113.57L1103.4 104.07L1103.4 85.07zM1119.85 132.57L1136.31 142.07L1136.31 161.07L1119.85 170.57L1103.4 161.07L1103.4 142.07zM1119.85 189.57L1136.31 199.07L1136.31 218.07L1119.85 227.57L1103.4 218.07L1103.4 199.07zM1119.85 246.57L1136.31 256.07L1136.31 275.07L1119.85 284.57L1103.4 275.07L1103.4 256.07zM1119.85 417.57L1136.31 427.07L1136.31 446.07L1119.85 455.57L1103.4 446.07L1103.4 427.07zM1103.4 503.07L1119.85 512.57L1119.85 531.57L1103.4 541.07L1086.94 531.57L1086.94 512.57zM1119.85 531.57L1136.31 541.07L1136.31 560.07L1119.85 569.57L1103.4 560.07L1103.4 541.07zM1103.4 560.07L1119.85 569.57L1119.85 588.57L1103.4 598.07L1086.94 588.57L1086.94 569.57zM1119.85 588.57L1136.31 598.07L1136.31 617.07L1119.85 626.57L1103.4 617.07L1103.4 598.07zM1103.4 674.07L1119.85 683.57L1119.85 702.57L1103.4 712.07L1086.94 702.57L1086.94 683.57zM1119.85 816.57L1136.31 826.07L1136.31 845.07L1119.85 854.57L1103.4 845.07L1103.4 826.07zM1136.31 -9.93L1152.76 -0.43L1152.76 18.57L1136.31 28.07L1119.85 18.57L1119.85 -0.43zM1152.76 132.57L1169.22 142.07L1169.22 161.07L1152.76 170.57L1136.31 161.07L1136.31 142.07zM1136.31 161.07L1152.76 170.57L1152.76 189.57L1136.31 199.07L1119.85 189.57L1119.85 170.57zM1136.31 218.07L1152.76 227.57L1152.76 246.57L1136.31 256.07L1119.85 246.57L1119.85 227.57zM1136.31 275.07L1152.76 284.57L1152.76 303.57L1136.31 313.07L1119.85 303.57L1119.85 284.57zM1152.76 303.57L1169.22 313.07L1169.22 332.07L1152.76 341.57L1136.31 332.07L1136.31 313.07zM1152.76 531.57L1169.22 541.07L1169.22 560.07L1152.76 569.57L1136.31 560.07L1136.31 541.07zM1136.31 560.07L1152.76 569.57L1152.76 588.57L1136.31 598.07L1119.85 588.57L1119.85 569.57zM1152.76 588.57L1169.22 598.07L1169.22 617.07L1152.76 626.57L1136.31 617.07L1136.31 598.07zM1136.31 674.07L1152.76 683.57L1152.76 702.57L1136.31 712.07L1119.85 702.57L1119.85 683.57zM1152.76 702.57L1169.22 712.07L1169.22 731.07L1152.76 740.57L1136.31 731.07L1136.31 712.07zM1152.76 759.57L1169.22 769.07L1169.22 788.07L1152.76 797.57L1136.31 788.07L1136.31 769.07zM1185.67 189.57L1202.13 199.07L1202.13 218.07L1185.67 227.57L1169.22 218.07L1169.22 199.07zM1185.67 246.57L1202.13 256.07L1202.13 275.07L1185.67 284.57L1169.22 275.07L1169.22 256.07zM1185.67 417.57L1202.13 427.07L1202.13 446.07L1185.67 455.57L1169.22 446.07L1169.22 427.07zM1169.22 446.07L1185.67 455.57L1185.67 474.57L1169.22 484.07L1152.76 474.57L1152.76 455.57zM1185.67 531.57L1202.13 541.07L1202.13 560.07L1185.67 569.57L1169.22 560.07L1169.22 541.07zM1169.22 560.07L1185.67 569.57L1185.67 588.57L1169.22 598.07L1152.76 588.57L1152.76 569.57zM1185.67 645.57L1202.13 655.07L1202.13 674.07L1185.67 683.57L1169.22 674.07L1169.22 655.07zM1185.67 702.57L1202.13 712.07L1202.13 731.07L1185.67 740.57L1169.22 731.07L1169.22 712.07zM1185.67 816.57L1202.13 826.07L1202.13 845.07L1185.67 854.57L1169.22 845.07L1169.22 826.07zM1185.67 873.57L1202.13 883.07L1202.13 902.07L1185.67 911.57L1169.22 902.07L1169.22 883.07zM1202.13 -9.93L1218.58 -0.43L1218.58 18.57L1202.13 28.07L1185.67 18.57L1185.67 -0.43zM1218.58 18.57L1235.04 28.07L1235.04 47.07L1218.58 56.57L1202.13 47.07L1202.13 28.07zM1218.58 75.57L1235.04 85.07L1235.04 104.07L1218.58 113.57L1202.13 104.07L1202.13 85.07zM1218.58 189.57L1235.04 199.07L1235.04 218.07L1218.58 227.57L1202.13 218.07L1202.13 199.07zM1202.13 218.07L1218.58 227.57L1218.58 246.57L1202.13 256.07L1185.67 246.57L1185.67 227.57zM1218.58 417.57L1235.04 427.07L1235.04 446.07L1218.58 455.57L1202.13 446.07L1202.13 427.07zM1202.13 503.07L1218.58 512.57L1218.58 531.57L1202.13 541.07L1185.67 531.57L1185.67 512.57zM1218.58 588.57L1235.04 598.07L1235.04 617.07L1218.58 626.57L1202.13 617.07L1202.13 598.07zM1218.58 645.57L1235.04 655.07L1235.04 674.07L1218.58 683.57L1202.13 674.07L1202.13 655.07zM1202.13 788.07L1218.58 797.57L1218.58 816.57L1202.13 826.07L1185.67 816.57L1185.67 797.57zM1235.04 47.07L1251.49 56.57L1251.49 75.57L1235.04 85.07L1218.58 75.57L1218.58 56.57zM1251.49 75.57L1267.95 85.07L1267.95 104.07L1251.49 113.57L1235.04 104.07L1235.04 85.07zM1235.04 104.07L1251.49 113.57L1251.49 132.57L1235.04 142.07L1218.58 132.57L1218.58 113.57zM1235.04 161.07L1251.49 170.57L1251.49 189.57L1235.04 199.07L1218.58 189.57L1218.58 170.57zM1251.49 189.57L1267.95 199.07L1267.95 218.07L1251.49 227.57L1235.04 218.07L1235.04 199.07zM1251.49 246.57L1267.95 256.07L1267.95 275.07L1251.49 284.57L1235.04 275.07L1235.04 256.07zM1251.49 417.57L1267.95 427.07L1267.95 446.07L1251.49 455.57L1235.04 446.07L1235.04 427.07zM1251.49 531.57L1267.95 541.07L1267.95 560.07L1251.49 569.57L1235.04 560.07L1235.04 541.07zM1251.49 645.57L1267.95 655.07L1267.95 674.07L1251.49 683.57L1235.04 674.07L1235.04 655.07zM1235.04 674.07L1251.49 683.57L1251.49 702.57L1235.04 712.07L1218.58 702.57L1218.58 683.57zM1235.04 731.07L1251.49 740.57L1251.49 759.57L1235.04 769.07L1218.58 759.57L1218.58 740.57zM1235.04 788.07L1251.49 797.57L1251.49 816.57L1235.04 826.07L1218.58 816.57L1218.58 797.57zM1284.4 18.57L1300.86 28.07L1300.86 47.07L1284.4 56.57L1267.95 47.07L1267.95 28.07zM1267.95 47.07L1284.4 56.57L1284.4 75.57L1267.95 85.07L1251.49 75.57L1251.49 56.57zM1267.95 161.07L1284.4 170.57L1284.4 189.57L1267.95 199.07L1251.49 189.57L1251.49 170.57zM1284.4 360.57L1300.86 370.07L1300.86 389.07L1284.4 398.57L1267.95 389.07L1267.95 370.07zM1284.4 474.57L1300.86 484.07L1300.86 503.07L1284.4 512.57L1267.95 503.07L1267.95 484.07zM1267.95 560.07L1284.4 569.57L1284.4 588.57L1267.95 598.07L1251.49 588.57L1251.49 569.57zM1267.95 617.07L1284.4 626.57L1284.4 645.57L1267.95 655.07L1251.49 645.57L1251.49 626.57zM1267.95 674.07L1284.4 683.57L1284.4 702.57L1267.95 712.07L1251.49 702.57L1251.49 683.57zM1267.95 731.07L1284.4 740.57L1284.4 759.57L1267.95 769.07L1251.49 759.57L1251.49 740.57zM1317.31 18.57L1333.77 28.07L1333.77 47.07L1317.31 56.57L1300.86 47.07L1300.86 28.07zM1300.86 47.07L1317.31 56.57L1317.31 75.57L1300.86 85.07L1284.4 75.57L1284.4 56.57zM1317.31 75.57L1333.77 85.07L1333.77 104.07L1317.31 113.57L1300.86 104.07L1300.86 85.07zM1300.86 161.07L1317.31 170.57L1317.31 189.57L1300.86 199.07L1284.4 189.57L1284.4 170.57zM1317.31 189.57L1333.77 199.07L1333.77 218.07L1317.31 227.57L1300.86 218.07L1300.86 199.07zM1300.86 218.07L1317.31 227.57L1317.31 246.57L1300.86 256.07L1284.4 246.57L1284.4 227.57zM1317.31 303.57L1333.77 313.07L1333.77 332.07L1317.31 341.57L1300.86 332.07L1300.86 313.07zM1300.86 446.07L1317.31 455.57L1317.31 474.57L1300.86 484.07L1284.4 474.57L1284.4 455.57zM1300.86 503.07L1317.31 512.57L1317.31 531.57L1300.86 541.07L1284.4 531.57L1284.4 512.57zM1317.31 588.57L1333.77 598.07L1333.77 617.07L1317.31 626.57L1300.86 617.07L1300.86 598.07zM1317.31 645.57L1333.77 655.07L1333.77 674.07L1317.31 683.57L1300.86 674.07L1300.86 655.07zM1300.86 845.07L1317.31 854.57L1317.31 873.57L1300.86 883.07L1284.4 873.57L1284.4 854.57zM1317.31 873.57L1333.77 883.07L1333.77 902.07L1317.31 911.57L1300.86 902.07L1300.86 883.07zM1333.77 -9.93L1350.22 -0.43L1350.22 18.57L1333.77 28.07L1317.31 18.57L1317.31 -0.43zM1350.22 18.57L1366.68 28.07L1366.68 47.07L1350.22 56.57L1333.77 47.07L1333.77 28.07zM1350.22 132.57L1366.68 142.07L1366.68 161.07L1350.22 170.57L1333.77 161.07L1333.77 142.07zM1350.22 189.57L1366.68 199.07L1366.68 218.07L1350.22 227.57L1333.77 218.07L1333.77 199.07zM1350.22 246.57L1366.68 256.07L1366.68 275.07L1350.22 284.57L1333.77 275.07L1333.77 256.07zM1350.22 474.57L1366.68 484.07L1366.68 503.07L1350.22 512.57L1333.77 503.07L1333.77 484.07zM1350.22 531.57L1366.68 541.07L1366.68 560.07L1350.22 569.57L1333.77 560.07L1333.77 541.07zM1333.77 674.07L1350.22 683.57L1350.22 702.57L1333.77 712.07L1317.31 702.57L1317.31 683.57zM1350.22 759.57L1366.68 769.07L1366.68 788.07L1350.22 797.57L1333.77 788.07L1333.77 769.07zM1333.77 788.07L1350.22 797.57L1350.22 816.57L1333.77 826.07L1317.31 816.57L1317.31 797.57zM1333.77 845.07L1350.22 854.57L1350.22 873.57L1333.77 883.07L1317.31 873.57L1317.31 854.57zM1350.22 873.57L1366.68 883.07L1366.68 902.07L1350.22 911.57L1333.77 902.07L1333.77 883.07zM1366.68 -9.93L1383.13 -0.43L1383.13 18.57L1366.68 28.07L1350.22 18.57L1350.22 -0.43zM1383.13 75.57L1399.59 85.07L1399.59 104.07L1383.13 113.57L1366.68 104.07L1366.68 85.07zM1383.13 189.57L1399.59 199.07L1399.59 218.07L1383.13 227.57L1366.68 218.07L1366.68 199.07zM1366.68 218.07L1383.13 227.57L1383.13 246.57L1366.68 256.07L1350.22 246.57L1350.22 227.57zM1383.13 246.57L1399.59 256.07L1399.59 275.07L1383.13 284.57L1366.68 275.07L1366.68 256.07zM1383.13 360.57L1399.59 370.07L1399.59 389.07L1383.13 398.57L1366.68 389.07L1366.68 370.07zM1383.13 417.57L1399.59 427.07L1399.59 446.07L1383.13 455.57L1366.68 446.07L1366.68 427.07zM1366.68 503.07L1383.13 512.57L1383.13 531.57L1366.68 541.07L1350.22 531.57L1350.22 512.57zM1366.68 560.07L1383.13 569.57L1383.13 588.57L1366.68 598.07L1350.22 588.57L1350.22 569.57zM1383.13 645.57L1399.59 655.07L1399.59 674.07L1383.13 683.57L1366.68 674.07L1366.68 655.07zM1366.68 674.07L1383.13 683.57L1383.13 702.57L1366.68 712.07L1350.22 702.57L1350.22 683.57zM1383.13 816.57L1399.59 826.07L1399.59 845.07L1383.13 854.57L1366.68 845.07L1366.68 826.07zM1383.13 873.57L1399.59 883.07L1399.59 902.07L1383.13 911.57L1366.68 902.07L1366.68 883.07zM1399.59 -9.93L1416.04 -0.43L1416.04 18.57L1399.59 28.07L1383.13 18.57L1383.13 -0.43zM1416.04 18.57L1432.5 28.07L1432.5 47.07L1416.04 56.57L1399.59 47.07L1399.59 28.07zM1416.04 132.57L1432.5 142.07L1432.5 161.07L1416.04 170.57L1399.59 161.07L1399.59 142.07zM1416.04 303.57L1432.5 313.07L1432.5 332.07L1416.04 341.57L1399.59 332.07L1399.59 313.07zM1399.59 332.07L1416.04 341.57L1416.04 360.57L1399.59 370.07L1383.13 360.57L1383.13 341.57zM1416.04 360.57L1432.5 370.07L1432.5 389.07L1416.04 398.57L1399.59 389.07L1399.59 370.07zM1416.04 531.57L1432.5 541.07L1432.5 560.07L1416.04 569.57L1399.59 560.07L1399.59 541.07zM1399.59 560.07L1416.04 569.57L1416.04 588.57L1399.59 598.07L1383.13 588.57L1383.13 569.57zM1399.59 674.07L1416.04 683.57L1416.04 702.57L1399.59 712.07L1383.13 702.57L1383.13 683.57zM1399.59 731.07L1416.04 740.57L1416.04 759.57L1399.59 769.07L1383.13 759.57L1383.13 740.57zM1416.04 759.57L1432.5 769.07L1432.5 788.07L1416.04 797.57L1399.59 788.07L1399.59 769.07zM1432.5 47.07L1448.95 56.57L1448.95 75.57L1432.5 85.07L1416.04 75.57L1416.04 56.57zM1448.95 75.57L1465.41 85.07L1465.41 104.07L1448.95 113.57L1432.5 104.07L1432.5 85.07zM1432.5 161.07L1448.95 170.57L1448.95 189.57L1432.5 199.07L1416.04 189.57L1416.04 170.57zM1448.95 189.57L1465.41 199.07L1465.41 218.07L1448.95 227.57L1432.5 218.07L1432.5 199.07zM1432.5 218.07L1448.95 227.57L1448.95 246.57L1432.5 256.07L1416.04 246.57L1416.04 227.57zM1448.95 474.57L1465.41 484.07L1465.41 503.07L1448.95 512.57L1432.5 503.07L1432.5 484.07zM1448.95 645.57L1465.41 655.07L1465.41 674.07L1448.95 683.57L1432.5 674.07L1432.5 655.07zM1448.95 702.57L1465.41 712.07L1465.41 731.07L1448.95 740.57L1432.5 731.07L1432.5 712.07zM1448.95 759.57L1465.41 769.07L1465.41 788.07L1448.95 797.57L1432.5 788.07L1432.5 769.07zM1432.5 788.07L1448.95 797.57L1448.95 816.57L1432.5 826.07L1416.04 816.57L1416.04 797.57zM1481.86 246.57L1498.32 256.07L1498.32 275.07L1481.86 284.57L1465.41 275.07L1465.41 256.07zM1465.41 446.07L1481.86 455.57L1481.86 474.57L1465.41 484.07L1448.95 474.57L1448.95 455.57zM1465.41 560.07L1481.86 569.57L1481.86 588.57L1465.41 598.07L1448.95 588.57L1448.95 569.57zM1481.86 588.57L1498.32 598.07L1498.32 617.07L1481.86 626.57L1465.41 617.07L1465.41 598.07zM1481.86 873.57L1498.32 883.07L1498.32 902.07L1481.86 911.57L1465.41 902.07L1465.41 883.07zM1514.77 18.57L1531.23 28.07L1531.23 47.07L1514.77 56.57L1498.32 47.07L1498.32 28.07zM1498.32 104.07L1514.77 113.57L1514.77 132.57L1498.32 142.07L1481.86 132.57L1481.86 113.57zM1514.77 132.57L1531.23 142.07L1531.23 161.07L1514.77 170.57L1498.32 161.07L1498.32 142.07zM1514.77 189.57L1531.23 199.07L1531.23 218.07L1514.77 227.57L1498.32 218.07L1498.32 199.07zM1514.77 246.57L1531.23 256.07L1531.23 275.07L1514.77 284.57L1498.32 275.07L1498.32 256.07zM1498.32 275.07L1514.77 284.57L1514.77 303.57L1498.32 313.07L1481.86 303.57L1481.86 284.57zM1514.77 303.57L1531.23 313.07L1531.23 332.07L1514.77 341.57L1498.32 332.07L1498.32 313.07zM1514.77 417.57L1531.23 427.07L1531.23 446.07L1514.77 455.57L1498.32 446.07L1498.32 427.07zM1498.32 674.07L1514.77 683.57L1514.77 702.57L1498.32 712.07L1481.86 702.57L1481.86 683.57zM1498.32 731.07L1514.77 740.57L1514.77 759.57L1498.32 769.07L1481.86 759.57L1481.86 740.57zM1514.77 759.57L1531.23 769.07L1531.23 788.07L1514.77 797.57L1498.32 788.07L1498.32 769.07zM1498.32 788.07L1514.77 797.57L1514.77 816.57L1498.32 826.07L1481.86 816.57L1481.86 797.57zM1514.77 816.57L1531.23 826.07L1531.23 845.07L1514.77 854.57L1498.32 845.07L1498.32 826.07zM1498.32 845.07L1514.77 854.57L1514.77 873.57L1498.32 883.07L1481.86 873.57L1481.86 854.57zM1531.23 -9.93L1547.68 -0.43L1547.68 18.57L1531.23 28.07L1514.77 18.57L1514.77 -0.43zM1531.23 47.07L1547.68 56.57L1547.68 75.57L1531.23 85.07L1514.77 75.57L1514.77 56.57zM1547.68 75.57L1564.14 85.07L1564.14 104.07L1547.68 113.57L1531.23 104.07L1531.23 85.07zM1531.23 104.07L1547.68 113.57L1547.68 132.57L1531.23 142.07L1514.77 132.57L1514.77 113.57zM1531.23 161.07L1547.68 170.57L1547.68 189.57L1531.23 199.07L1514.77 189.57L1514.77 170.57zM1547.68 189.57L1564.14 199.07L1564.14 218.07L1547.68 227.57L1531.23 218.07L1531.23 199.07zM1547.68 360.57L1564.14 370.07L1564.14 389.07L1547.68 398.57L1531.23 389.07L1531.23 370.07zM1531.23 389.07L1547.68 398.57L1547.68 417.57L1531.23 427.07L1514.77 417.57L1514.77 398.57zM1547.68 588.57L1564.14 598.07L1564.14 617.07L1547.68 626.57L1531.23 617.07L1531.23 598.07zM1547.68 702.57L1564.14 712.07L1564.14 731.07L1547.68 740.57L1531.23 731.07L1531.23 712.07zM1531.23 731.07L1547.68 740.57L1547.68 759.57L1531.23 769.07L1514.77 759.57L1514.77 740.57zM1547.68 759.57L1564.14 769.07L1564.14 788.07L1547.68 797.57L1531.23 788.07L1531.23 769.07zM1564.14 389.07L1580.59 398.57L1580.59 417.57L1564.14 427.07L1547.68 417.57L1547.68 398.57zM1580.59 417.57L1597.05 427.07L1597.05 446.07L1580.59 455.57L1564.14 446.07L1564.14 427.07zM1580.59 474.57L1597.05 484.07L1597.05 503.07L1580.59 512.57L1564.14 503.07L1564.14 484.07zM1564.14 617.07L1580.59 626.57L1580.59 645.57L1564.14 655.07L1547.68 645.57L1547.68 626.57zM1580.59 816.57L1597.05 826.07L1597.05 845.07L1580.59 854.57L1564.14 845.07L1564.14 826.07zM1580.59 873.57L1597.05 883.07L1597.05 902.07L1580.59 911.57L1564.14 902.07L1564.14 883.07zM1597.05 -9.93L1613.5 -0.43L1613.5 18.57L1597.05 28.07L1580.59 18.57L1580.59 -0.43zM1613.5 18.57L1629.96 28.07L1629.96 47.07L1613.5 56.57L1597.05 47.07L1597.05 28.07zM1597.05 47.07L1613.5 56.57L1613.5 75.57L1597.05 85.07L1580.59 75.57L1580.59 56.57zM1613.5 75.57L1629.96 85.07L1629.96 104.07L1613.5 113.57L1597.05 104.07L1597.05 85.07zM1613.5 189.57L1629.96 199.07L1629.96 218.07L1613.5 227.57L1597.05 218.07L1597.05 199.07zM1597.05 218.07L1613.5 227.57L1613.5 246.57L1597.05 256.07L1580.59 246.57L1580.59 227.57zM1597.05 389.07L1613.5 398.57L1613.5 417.57L1597.05 427.07L1580.59 417.57L1580.59 398.57zM1597.05 446.07L1613.5 455.57L1613.5 474.57L1597.05 484.07L1580.59 474.57L1580.59 455.57zM1613.5 474.57L1629.96 484.07L1629.96 503.07L1613.5 512.57L1597.05 503.07L1597.05 484.07zM1597.05 503.07L1613.5 512.57L1613.5 531.57L1597.05 541.07L1580.59 531.57L1580.59 512.57zM1613.5 645.57L1629.96 655.07L1629.96 674.07L1613.5 683.57L1597.05 674.07L1597.05 655.07zM1597.05 674.07L1613.5 683.57L1613.5 702.57L1597.05 712.07L1580.59 702.57L1580.59 683.57zM1613.5 702.57L1629.96 712.07L1629.96 731.07L1613.5 740.57L1597.05 731.07L1597.05 712.07zM1613.5 759.57L1629.96 769.07L1629.96 788.07L1613.5 797.57L1597.05 788.07L1597.05 769.07zM1597.05 788.07L1613.5 797.57L1613.5 816.57L1597.05 826.07L1580.59 816.57L1580.59 797.57zM1646.41 75.57L1662.87 85.07L1662.87 104.07L1646.41 113.57L1629.96 104.07L1629.96 85.07zM1646.41 132.57L1662.87 142.07L1662.87 161.07L1646.41 170.57L1629.96 161.07L1629.96 142.07zM1629.96 446.07L1646.41 455.57L1646.41 474.57L1629.96 484.07L1613.5 474.57L1613.5 455.57zM1646.41 474.57L1662.87 484.07L1662.87 503.07L1646.41 512.57L1629.96 503.07L1629.96 484.07zM1646.41 531.57L1662.87 541.07L1662.87 560.07L1646.41 569.57L1629.96 560.07L1629.96 541.07zM1646.41 645.57L1662.87 655.07L1662.87 674.07L1646.41 683.57L1629.96 674.07L1629.96 655.07zM1646.41 702.57L1662.87 712.07L1662.87 731.07L1646.41 740.57L1629.96 731.07L1629.96 712.07zM1629.96 731.07L1646.41 740.57L1646.41 759.57L1629.96 769.07L1613.5 759.57L1613.5 740.57zM1646.41 759.57L1662.87 769.07L1662.87 788.07L1646.41 797.57L1629.96 788.07L1629.96 769.07zM1629.96 788.07L1646.41 797.57L1646.41 816.57L1629.96 826.07L1613.5 816.57L1613.5 797.57zM1646.41 816.57L1662.87 826.07L1662.87 845.07L1646.41 854.57L1629.96 845.07L1629.96 826.07zM1679.32 75.57L1695.77 85.07L1695.77 104.07L1679.32 113.57L1662.87 104.07L1662.87 85.07zM1662.87 104.07L1679.32 113.57L1679.32 132.57L1662.87 142.07L1646.41 132.57L1646.41 113.57zM1662.87 218.07L1679.32 227.57L1679.32 246.57L1662.87 256.07L1646.41 246.57L1646.41 227.57zM1679.32 246.57L1695.77 256.07L1695.77 275.07L1679.32 284.57L1662.87 275.07L1662.87 256.07zM1679.32 360.57L1695.77 370.07L1695.77 389.07L1679.32 398.57L1662.87 389.07L1662.87 370.07zM1662.87 446.07L1679.32 455.57L1679.32 474.57L1662.87 484.07L1646.41 474.57L1646.41 455.57zM1662.87 845.07L1679.32 854.57L1679.32 873.57L1662.87 883.07L1646.41 873.57L1646.41 854.57zM1679.32 873.57L1695.77 883.07L1695.77 902.07L1679.32 911.57L1662.87 902.07L1662.87 883.07z" stroke="#6995E6" stroke-width="2"></path></g><defs><mask id="SvgjsMask1176"><rect width="1663" height="870.72" fill="#ffffff"></rect></mask></defs></svg>